<svg width="64" height="64" viewBox="0 0 64 64" fill="none" xmlns="http://www.w3.org/2000/svg">
<g clip-path="url(#clip0_302815_4230)">
<path d="M65.6653 44.1952L47.5678 27.1851L49.5764 17.9541C50.0946 18.1429 50.6457 18.2416 51.2019 18.2453H51.2157C53.7712 18.2735 55.8674 16.3633 55.8976 13.9788C55.9279 11.5943 53.8807 9.6384 51.3251 9.61013C48.7696 9.582 46.6734 11.4921 46.6431 13.8767C46.6367 14.3869 46.7272 14.8941 46.9105 15.3749L36.279 16.5856L18.9372 0.32C18.7244 0.117467 18.434 0.00226667 18.1301 0C17.83 0.00146667 17.5427 0.112933 17.3299 0.3104L14.0879 3.3184C13.6416 3.73493 13.6416 4.41013 14.0879 4.82667L15.8323 6.47787C9.07392 18.0737 11.2691 32.4335 21.2327 41.8037C21.3241 41.8853 21.4301 41.9513 21.5459 41.9989C21.4739 42.3599 21.4363 42.7261 21.4339 43.0933V55.4667H7.71584C4.5607 55.4701 2.00372 57.856 2 60.8V62.9333C2 63.5224 2.51185 64 3.14317 64H55.7289C56.3602 64 56.8721 63.5224 56.8721 62.9333V60.8C56.8683 57.856 54.3114 55.4701 51.1562 55.4667H37.4382V49.9829C39.5872 50.4035 41.7768 50.6179 43.9726 50.6229C49.2414 50.6176 54.4264 49.392 59.0624 47.056L60.816 48.7019C61.0288 48.9044 61.3191 49.0196 61.6231 49.0219C61.9231 49.0204 62.2105 48.9089 62.4233 48.7115L65.6653 45.7035C66.1116 45.2869 66.1116 44.6117 65.6653 44.1952ZM49.6038 12.4661C50.499 11.6352 51.9467 11.6389 52.8371 12.4743C53.7276 13.3096 53.7236 14.6604 52.8284 15.4912C52.3998 15.8889 51.82 16.1121 51.2155 16.112H51.2087C49.946 16.1059 48.9276 15.1459 48.9342 13.9676C48.9373 13.4036 49.1797 12.8639 49.6082 12.4661H49.6038V12.4661ZM46.9128 19.4752L45.6301 25.3664L43.1106 23.0016L46.9128 19.4752ZM45.6141 17.6715L41.4987 21.4891L38.315 18.5024L45.6141 17.6715ZM51.1562 57.6C53.0503 57.6 54.5857 59.0327 54.5857 60.8V61.8667H4.28634V60.8C4.28634 59.0327 5.82175 57.6 7.71584 57.6H51.1562ZM35.1519 53.3333V55.4667H23.7202V53.3333H35.1519ZM23.7202 51.2V43.0933C23.7202 40.5056 26.2843 38.4 29.436 38.4C32.5877 38.4 35.1519 40.5056 35.1519 43.0933V51.2H23.7202ZM37.4382 47.808V43.0933C37.4382 39.3291 33.8487 36.2667 29.436 36.2667C26.583 36.2259 23.9151 37.5809 22.4033 39.8389C13.7058 31.2913 11.7472 18.5485 17.5192 8.06467L57.3911 45.4816C51.2342 48.404 44.1765 49.2268 37.4382 47.808ZM61.6356 46.4405L60.0249 44.9291L18.1187 5.59147L16.5011 4.07893L18.1187 2.57493L35.1267 18.5344C35.1347 18.5344 35.1393 18.5483 35.1473 18.5536L63.2578 44.9365L61.6356 46.4405Z" fill="#2E2F42"/>
<path d="M27.7511 40.5333H27.7415C25.9742 40.5306 24.5394 41.9612 24.5367 43.7285C24.534 45.4958 25.9646 46.9306 27.7319 46.9333H27.7415C29.5088 46.936 30.9436 45.5054 30.9463 43.7381C30.9489 41.9708 29.5184 40.536 27.7511 40.5333ZM28.4978 44.4896C28.297 44.6893 28.0248 44.801 27.7415 44.8C27.1524 44.7969 26.6774 44.3169 26.6804 43.7278C26.6819 43.4458 26.795 43.176 26.9948 42.977C27.1934 42.7796 27.4615 42.6681 27.7415 42.6666C28.3306 42.6697 28.8056 43.1497 28.8026 43.7388C28.8011 44.0208 28.688 44.2906 28.4882 44.4896H28.4978Z" fill="#4D5AE5"/>
</g>
<defs>
<clipPath id="clip0_302815_4230">
<rect width="64" height="64" fill="white"/>
</clipPath>
</defs>
</svg>
