<svg width="64" height="64" viewBox="0 0 64 64" fill="none" xmlns="http://www.w3.org/2000/svg">
<g clip-path="url(#clip0_302815_4140)">
<path d="M63.9481 9.04812C63.8222 8.66299 63.4895 8.38149 63.0873 8.32274L59.2665 7.76698L57.5566 4.30455C57.1983 3.57492 56.0025 3.57492 55.6441 4.30455L53.9342 7.76698L50.1133 8.32286C49.7112 8.38149 49.3784 8.66212 49.2514 9.04825C49.1266 9.43438 49.23 9.85889 49.5213 10.1416L52.2872 12.8372L51.6344 16.6431C51.5662 17.0431 51.7304 17.4474 52.0579 17.6864C52.3897 17.9275 52.8227 17.9573 53.1822 17.7674L56.5999 15.97L60.0176 17.7674C60.1733 17.8495 60.3451 17.89 60.5147 17.89C60.7354 17.89 60.9563 17.8218 61.1419 17.6863C61.4704 17.4474 61.6347 17.043 61.5654 16.643L60.9127 12.8371L63.6786 10.1415C63.9684 9.85776 64.073 9.43425 63.9481 9.04812ZM59.0223 11.702C58.7717 11.9463 58.6564 12.3004 58.7162 12.6461L59.098 14.8743L57.097 13.8226C56.9413 13.7404 56.7706 13.6999 56.5999 13.6999C56.4292 13.6999 56.2596 13.7404 56.1027 13.8226L54.1016 14.8743L54.4835 12.6461C54.5432 12.3004 54.428 11.9474 54.1773 11.702L52.5571 10.1234L54.795 9.79801C55.1427 9.74788 55.4425 9.52926 55.5982 9.2145L56.5988 7.18785L57.5993 9.2145C57.755 9.52913 58.0548 9.74788 58.4025 9.79801L60.6404 10.1234L59.0223 11.702Z" fill="#4D5AE5"/>
<path d="M52.2669 41.0444H50.1335V43.1778H52.2669V41.0444Z" fill="#4D5AE5"/>
<path d="M52.2669 45.3112H50.1335V47.4446H52.2669V45.3112Z" fill="#4D5AE5"/>
<path d="M54.4003 43.1778H52.2669V45.3112H54.4003V43.1778Z" fill="#4D5AE5"/>
<path d="M50.1337 43.1778H48.0003V45.3112H50.1337V43.1778Z" fill="#4D5AE5"/>
<path d="M44.8002 52.778H42.6668V54.9113H44.8002V52.778Z" fill="#4D5AE5"/>
<path d="M44.8002 57.0446H42.6668V59.1781H44.8002V57.0446Z" fill="#4D5AE5"/>
<path d="M46.9336 54.9113H44.8002V57.0448H46.9336V54.9113Z" fill="#4D5AE5"/>
<path d="M42.6668 54.9113H40.5334V57.0448H42.6668V54.9113Z" fill="#4D5AE5"/>
<path d="M32 48.5113H29.8666V50.6447H32V48.5113Z" fill="#4D5AE5"/>
<path d="M32 52.778H29.8666V54.9113H32V52.778Z" fill="#4D5AE5"/>
<path d="M34.1334 50.6445H32V52.7779H34.1334V50.6445Z" fill="#4D5AE5"/>
<path d="M29.8666 50.6445H27.7332V52.7779H29.8666V50.6445Z" fill="#4D5AE5"/>
<path d="M11.733 12.2439H9.59964V14.3773H11.733V12.2439Z" fill="#4D5AE5"/>
<path d="M11.733 16.5108H9.59964V18.6442H11.733V16.5108Z" fill="#4D5AE5"/>
<path d="M13.8663 14.3774H11.7329V16.5108H13.8663V14.3774Z" fill="#4D5AE5"/>
<path d="M9.59964 14.3774H7.46624V16.5108H9.59964V14.3774Z" fill="#4D5AE5"/>
<path d="M63.1011 32.1628C62.3672 31.2679 61.2901 30.6919 60.0672 30.5367C58.839 30.3792 57.627 30.6709 56.6466 31.3491L53.4506 33.5634L53.4491 33.5647L48.6041 36.8351L45.1371 35.5869C51.3193 33.0797 55.6401 27.4903 55.6401 21.0012C55.6401 12.1783 47.6672 5 37.867 5C28.0668 5 20.0941 12.1783 20.0941 21.0012C20.0941 24.199 21.1521 27.1727 22.9537 29.675L15.8972 29.6196C15.8931 29.6196 15.8891 29.6196 15.885 29.6196C15.8631 29.6196 15.8455 29.6295 15.8251 29.6308C15.6903 29.6357 15.5581 29.6603 15.4289 29.7022C15.3962 29.7133 15.3622 29.7195 15.3309 29.7329C15.3146 29.7391 15.2982 29.7402 15.2819 29.7476L7.02721 33.4315C7.02578 33.4315 7.0245 33.4315 7.0245 33.4327L2.19031 35.534C2.13717 35.5549 2.08275 35.5832 2.02961 35.6152C0.102733 36.7746 -0.553603 39.0518 0.501832 40.9128C1.06418 41.9024 2.02147 42.6311 3.19803 42.9646C3.65154 43.0926 4.11447 43.1555 4.57469 43.1555C5.31416 43.1555 6.04678 42.9917 6.71795 42.6681L10.2612 40.9646L16.0417 38.2665L19.5059 38.2481L5.61225 50.7463C5.61098 50.7476 5.60954 50.7476 5.6081 50.7488L2.19015 53.8259C1.38269 54.5522 0.938751 55.5158 0.938751 56.5437C0.938751 57.5703 1.38269 58.5364 2.19015 59.264C3.01946 60.0098 4.11016 60.384 5.20087 60.384C6.293 60.384 7.38227 60.0098 8.2143 59.264L11.5695 56.2434L16.0142 53.2437L18.3142 55.314L13.8164 59.3623C13.8151 59.3636 13.8137 59.3636 13.8122 59.3648L10.3943 62.4419C9.58681 63.1682 9.14287 64.1318 9.14287 65.1597C9.14287 66.1863 9.58681 67.1524 10.3943 67.88C11.2236 68.6258 12.3157 69 13.4064 69C14.4971 69 15.5893 68.6258 16.4199 67.88L19.8391 64.8028L25.309 59.8794C25.3105 59.8781 25.3105 59.877 25.3117 59.8757L27.8895 57.5678L27.88 57.5592C27.8962 57.5444 27.9194 57.5394 27.9358 57.5235L41.1254 44.4653L49.9875 45.6051C50.0514 45.6138 50.1154 45.6174 50.1794 45.6174C50.3443 45.6174 50.5035 45.5817 50.6574 45.5288C50.7024 45.5141 50.7418 45.4943 50.7841 45.4747C50.833 45.4525 50.8847 45.4402 50.9312 45.412L59.1355 40.4886C59.1655 40.4701 59.1817 40.4405 59.2103 40.4209C59.243 40.3975 59.2839 40.3877 59.3137 40.3618L62.56 37.6132C64.2491 36.1827 64.4819 33.8392 63.1011 32.1628ZM5.43927 40.4956C4.99677 40.7098 4.49426 40.7528 4.01362 40.6151C3.53697 40.4809 3.15031 40.1867 2.9242 39.7891C2.51297 39.0653 2.75121 38.184 3.47154 37.7077L6.82551 36.2492L7.63296 38.3822L7.97206 39.2782L5.43927 40.4956ZM14.368 36.2776L10.415 38.1239L9.76282 36.4006L9.29447 35.1623L14.469 32.8531L14.368 36.2776ZM52.9195 20.9987C52.9195 23.1182 52.3599 25.1173 51.3903 26.9056L40.7145 22.5225C40.6028 21.1994 39.843 20.0411 38.7019 19.3198L42.4398 8.10293C48.5104 9.8484 52.9195 14.9675 52.9195 20.9987ZM22.8203 20.9987C22.8203 13.5335 29.5716 7.45918 37.8699 7.45918C38.5154 7.45918 39.1471 7.50837 39.7722 7.57977L36.116 18.5505C36.067 18.5492 36.0207 18.537 35.9703 18.537C33.3339 18.537 31.1892 20.4694 31.1892 22.845C31.1892 25.2206 33.3339 27.1531 35.9703 27.1531C37.7432 27.1531 39.2751 26.2682 40.1017 24.9732L49.9632 29.0228C47.2193 32.3608 42.8278 34.5383 37.8697 34.5383C29.5716 34.5383 22.8203 28.464 22.8203 20.9987ZM38.0279 22.845C38.0279 23.8629 37.1046 24.6913 35.9703 24.6913C34.836 24.6913 33.9127 23.8629 33.9127 22.845C33.9127 21.8271 34.836 20.9987 35.9703 20.9987C37.1046 20.9987 38.0279 21.8271 38.0279 22.845ZM6.29316 57.5185C5.68997 58.0588 4.71352 58.0577 4.11176 57.5198C3.82165 57.2575 3.66239 56.9118 3.66239 56.5437C3.66239 56.1769 3.82165 55.831 4.11176 55.5714L6.56811 53.3594L8.74138 55.3153L6.29316 57.5185ZM14.4987 66.1346C13.8955 66.675 12.9178 66.6763 12.3159 66.1359C12.0258 65.8737 11.8665 65.528 11.8665 65.1598C11.8665 64.793 12.0258 64.4471 12.3159 64.1875L14.7738 61.9744L15.802 62.8989L16.9485 63.9303L14.4987 66.1346ZM23.3881 58.1291C23.3866 58.1302 23.3853 58.1302 23.3839 58.1315L18.878 62.1934L17.8498 61.2689L16.7033 60.2374L21.2051 56.1867C21.2051 56.1867 21.2051 56.1867 21.2051 56.1855C21.2065 56.1842 21.2078 56.1842 21.2092 56.1831C21.3113 56.0908 21.3753 55.98 21.438 55.8705C21.4557 55.8385 21.4897 55.8114 21.5047 55.7782C21.547 55.6834 21.5537 55.5813 21.5702 55.4815C21.5783 55.4248 21.6056 55.372 21.6056 55.314C21.6056 55.2315 21.5729 55.1516 21.5539 55.0703C21.5376 54.9964 21.5376 54.9213 21.5062 54.85C21.4545 54.7343 21.3659 54.6322 21.2734 54.5324C21.2475 54.5053 21.2379 54.4708 21.2094 54.445C21.2094 54.445 21.2094 54.445 21.2079 54.445C21.2065 54.4438 21.2065 54.4412 21.2052 54.4401L17.1024 50.7475C17.0588 50.7081 17.0029 50.6921 16.954 50.6589C16.8818 50.6084 16.8124 50.5617 16.732 50.5259C16.6544 50.4914 16.5754 50.4705 16.4937 50.4508C16.4066 50.4286 16.3222 50.4114 16.2309 50.4052C16.1478 50.4003 16.0702 50.4076 15.9872 50.4163C15.896 50.4261 15.8103 50.4372 15.7217 50.463C15.6359 50.4877 15.5597 50.5258 15.4807 50.5665C15.4303 50.5923 15.3732 50.6009 15.3255 50.633L10.7978 53.688L8.49786 51.6177L14.6229 46.1108L25.7563 56.0083L23.3881 58.1291ZM40.7976 41.9357C40.7582 41.9308 40.7214 41.9444 40.6819 41.9419C40.5825 41.937 40.4873 41.9432 40.3878 41.958C40.3103 41.9702 40.2367 41.9838 40.1632 42.0071C40.076 42.0343 39.997 42.0712 39.9166 42.1155C39.8403 42.1573 39.7709 42.2016 39.7042 42.257C39.6715 42.2828 39.6321 42.2952 39.6021 42.3246L27.6066 54.2001L16.5563 44.3765L23.7897 37.8726C24.3222 37.3926 24.3249 36.6134 23.7939 36.1309C23.5256 35.8884 23.1729 35.769 22.8203 35.7703V35.7691L17.1555 35.7998L17.2263 32.0901L25.1515 32.1517C28.3815 35.1378 32.886 37.0001 37.8699 37.0001C38.9864 37.0001 40.0759 36.8955 41.1366 36.7169C41.2387 36.7908 41.3394 36.8659 41.4675 36.9127L47.6198 39.1282L48.0092 40.8784L48.464 42.9216L40.7976 41.9357ZM51.1153 42.3468L50.316 38.7515L54.0089 36.259L54.9758 37.4184L56.426 39.1588L51.1153 42.3468ZM60.699 35.8134L58.5597 37.6252L56.1822 34.7721L58.305 33.3013C58.7013 33.0256 59.2011 32.9136 59.6913 32.9714C60.1842 33.0341 60.62 33.2668 60.9168 33.6274C61.4697 34.3007 61.3758 35.2399 60.699 35.8134Z" fill="#2E2F42"/>
<path d="M27.2042 37.0881L22.9182 32.8214C22.5033 32.4065 21.8291 32.4065 21.4131 32.8214L17.1283 37.0881C16.9278 37.2897 16.8146 37.5606 16.8146 37.8443C16.8146 38.1281 16.9266 38.4001 17.1283 38.6006L21.4131 42.8673C21.6211 43.0742 21.8942 43.1777 22.1662 43.1777C22.4382 43.1777 22.7112 43.0742 22.9182 42.8673L27.2042 38.6006C27.4047 38.4001 27.5188 38.1281 27.5188 37.8443C27.5188 37.5606 27.4057 37.2886 27.2042 37.0881ZM22.1662 40.606L19.3928 37.8443L22.1662 35.0827L24.9406 37.8443L22.1662 40.606Z" fill="#2E2F42"/>
<path d="M34.3285 10.1415L33.8133 12.2131C33.9552 12.2483 37.2886 13.1166 37.2886 16.5108H39.422C39.4219 12.4765 36.0907 10.5799 34.3285 10.1415Z" fill="#2E2F42"/>
<path d="M39.422 18.644H37.2886V20.7775H39.422V18.644Z" fill="#2E2F42"/>
</g>
<defs>
<clipPath id="clip0_302815_4140">
<rect width="64" height="64" fill="white"/>
</clipPath>
</defs>
</svg>
