<svg width="64" height="64" viewBox="0 0 64 64" fill="none" xmlns="http://www.w3.org/2000/svg">
<g clip-path="url(#clip0_302815_4220)">
<path d="M64.9999 30.6026C64.9963 13.6978 50.6665 -0.00341734 32.9931 6.39363e-07C15.3202 0.00341862 0.996427 13.711 1 30.6158C1.00306 43.9317 10.0052 55.7178 23.2666 59.7681C23.3932 59.8062 23.5249 59.8258 23.6571 59.8253C23.9093 59.8248 24.1564 59.7603 24.3733 59.6378C24.6556 59.4781 24.8664 59.2242 24.9655 58.9249L33.0467 34.4248C35.256 34.4141 37.0375 32.6919 37.0258 30.5791C37.0145 28.4659 35.2146 26.7618 33.0053 26.7725C32.4111 26.7749 31.8246 26.9058 31.2907 27.1553L20.6147 16.9419C20.0849 16.4527 19.2411 16.4668 18.7296 16.9732C18.2303 17.4678 18.2303 18.251 18.7296 18.7456L29.3999 28.9639C28.5811 30.5625 29.0492 32.4922 30.5214 33.5821L22.8215 56.9278C7.60443 51.566 -0.187348 35.42 5.4181 20.8643C11.0235 6.3086 27.9032 -1.14453 43.1202 4.21729C58.3373 9.57911 66.1291 25.7256 60.5236 40.2808C57.785 47.3922 52.1581 53.1431 44.9212 56.2276L44.0891 52.4791C43.937 51.7901 43.229 51.3497 42.5087 51.4957C42.2815 51.5421 42.0707 51.6441 41.8972 51.7921L33.8746 58.6431C33.3244 59.1114 33.2754 59.9176 33.7654 60.4439C33.9247 60.6148 34.1289 60.7418 34.3576 60.8116L44.6001 63.9386C45.301 64.1539 46.0519 63.7852 46.277 63.1143C46.3484 62.9024 46.3602 62.6768 46.3122 62.4591L45.4944 58.7808C57.3378 54.005 65.0275 42.8965 64.9999 30.6026V30.6026ZM33.0002 29.3272C33.7363 29.3272 34.3336 29.8985 34.3336 30.6026C34.3336 31.3072 33.7363 31.878 33.0002 31.878C32.2636 31.878 31.6669 31.3072 31.6669 30.6026C31.6669 29.8985 32.2636 29.3272 33.0002 29.3272ZM37.3918 59.0553L41.9584 55.1588L43.2188 60.8394L37.3918 59.0553Z" fill="#2E2F42"/>
<path d="M30.709 6.37012V8.9209C30.709 9.62549 31.2798 10.1963 31.9844 10.1963C32.6885 10.1963 33.2598 9.62549 33.2598 8.9209V6.37012C33.2598 5.66602 32.6885 5.09473 31.9844 5.09473C31.2798 5.09473 30.709 5.66602 30.709 6.37012Z" fill="#4D5AE5"/>
<path d="M7.75195 29.3271C7.04736 29.3271 6.47656 29.8984 6.47656 30.6025C6.47656 31.3071 7.04736 31.8779 7.75195 31.8779H10.3027C11.0073 31.8779 11.5781 31.3071 11.5781 30.6025C11.5781 29.8984 11.0073 29.3271 10.3027 29.3271H7.75195Z" fill="#4D5AE5"/>
<path d="M56.2162 31.8779C56.9208 31.8779 57.4916 31.3071 57.4916 30.6025C57.4916 29.8984 56.9208 29.3271 56.2162 29.3271H53.6655C52.9614 29.3271 52.3901 29.8984 52.3901 30.6025C52.3901 31.3071 52.9614 31.8779 53.6655 31.8779H56.2162Z" fill="#4D5AE5"/>
</g>
<defs>
<clipPath id="clip0_302815_4220">
<rect width="64" height="64" fill="white"/>
</clipPath>
</defs>
</svg>
