<svg width="64" height="64" viewBox="0 0 64 64" fill="none" xmlns="http://www.w3.org/2000/svg">
<g clip-path="url(#clip0_302815_4209)">
<path d="M29.851 29.9292H31.9833V39.5242H29.851V29.9292Z" fill="#4D5AE5"/>
<path d="M38.3799 34.1936H40.5121V39.5242H38.3799V34.1936Z" fill="#4D5AE5"/>
<path d="M21.3222 37.392H23.4544V39.5242H21.3222V37.392Z" fill="#4D5AE5"/>
<path d="M14.9255 36.3258H17.0577V39.5241H14.9255V36.3258Z" fill="#4D5AE5"/>
<path d="M3.19832 71H54.3714C56.1377 71 57.5698 69.1328 57.5698 66.8299V61.2697C57.5698 58.9668 56.1377 57.0996 54.3714 57.0996H53.3053V22.4348L59.361 14.9552C60.7665 15.8586 62.4677 15.3101 63.3875 13.6547C64.3079 12 64.1788 9.72147 63.0825 8.26084C61.9862 6.80022 60.2423 6.58234 58.9529 7.74501C57.664 8.90835 57.2059 11.1135 57.868 12.9658L53.3053 18.6054V15.3984C53.3053 13.0954 51.8733 11.2283 50.107 11.2283H7.46275C5.69649 11.2283 4.26443 13.0954 4.26443 15.3984V57.0996H3.19832C1.43206 57.0996 0 58.9668 0 61.2697V66.8299C0 69.1328 1.43206 71 3.19832 71ZM60.7681 9.83822C61.3568 9.83822 61.8342 10.4606 61.8342 11.2283C61.8342 11.9959 61.3568 12.6183 60.7681 12.6183C60.1793 12.6183 59.702 11.9959 59.702 11.2283C59.702 10.4606 60.1793 9.83822 60.7681 9.83822ZM6.39664 15.3984C6.39664 14.6307 6.87399 14.0083 7.46275 14.0083H50.107C50.6958 14.0083 51.1731 14.6307 51.1731 15.3984V21.2361L49.0409 23.8778V18.1785C49.0409 17.4108 48.5635 16.7884 47.9748 16.7884H9.59496C9.00621 16.7884 8.52885 17.4108 8.52885 18.1785V52.9295C8.52885 53.6971 9.00621 54.3195 9.59496 54.3195H47.9748C48.5635 54.3195 49.0409 53.6971 49.0409 52.9295V27.7017L51.1731 25.0676V57.0996H6.39664V15.3984ZM15.9916 33.4689C14.5491 33.4635 13.2826 34.7164 12.899 36.5293C12.5153 38.3422 13.1093 40.265 14.3498 41.2248C15.5897 42.1845 17.1696 41.9435 18.2061 40.6356L21.9119 43.0601C22.3424 43.341 22.8646 43.2094 23.1847 42.7404L31.0623 31.185L38.8062 38.7508C39.2216 39.1567 39.8015 39.1132 40.1784 38.6483L46.9087 30.3359V51.5394H10.6611V19.5685H46.9087V26.5058L39.3658 35.8194L31.5569 28.1863C31.1133 27.7533 30.4892 27.8348 30.1206 28.3744L22.1347 40.0899L19.1493 38.1433C19.1712 37.9764 19.1847 37.808 19.1899 37.639C19.1899 35.3361 17.7579 33.4689 15.9916 33.4689ZM17.0577 37.639C17.0577 38.4067 16.5804 39.0291 15.9916 39.0291C15.4028 39.0291 14.9255 38.4067 14.9255 37.639C14.9255 36.8714 15.4028 36.249 15.9916 36.249C16.5804 36.249 17.0577 36.8714 17.0577 37.639ZM23.4543 59.8797H34.1154V61.2697C34.1154 62.0374 33.6381 62.6598 33.0493 62.6598H24.5205C23.9317 62.6598 23.4543 62.0374 23.4543 61.2697V59.8797ZM2.13221 61.2697C2.13221 60.5021 2.60957 59.8797 3.19832 59.8797H21.3221V61.2697C21.3221 63.5727 22.7542 65.4398 24.5205 65.4398H33.0493C34.8156 65.4398 36.2476 63.5727 36.2476 61.2697V59.8797H54.3714C54.9602 59.8797 55.4375 60.5021 55.4375 61.2697V66.8299C55.4375 67.5975 54.9602 68.2199 54.3714 68.2199H3.19832C2.60957 68.2199 2.13221 67.5975 2.13221 66.8299V61.2697Z" fill="#2E2F42"/>
</g>
<defs>
<clipPath id="clip0_302815_4209">
<rect width="64" height="64" fill="white"/>
</clipPath>
</defs>
</svg>
