<svg xmlns="http://www.w3.org/2000/svg" aria-hidden="true" style="position:absolute;width:0;height:0;overflow:hidden">
  <defs>
    <symbol id="icon-antenna1" viewBox="0 0 32 32">
      <path fill="#2e2f42" d="m33 22-9-8 1-5h1l2-2-2-2c-2 0-3 1-3 2v1h-5L9 0 7 2l1 1a14 14 0 0 0 3 18v7H4c-2 0-3 1-3 2v1l1 1h26v-2l-2-2h-7v-3a17 17 0 0 0 11-1 1 1 0 0 0 1 0l2-1v-1zM25 6h1v2l-2-1 1-1zm-2 4v3l-1-1 1-2zm0-1-2 2-2-2h4zm3 20 1 1v1H2v-1l2-1h22zm-8-2v1h-6v-1h6zm-6-1v-4c0-2 1-3 3-3s3 1 3 3v4h-6zm7-2v-2c0-2-2-4-4-4l-4 2C7 16 6 9 9 4l20 19c-3 1-7 2-10 1zm12-1L8 2l1-1 9 8 14 13-1 1z" style="fill:var(--color1, #2e2f42)"/>
      <path fill="#4d5ae5" d="M14 20a2 2 0 1 0 0 3 2 2 0 1 0 0-3zm0 2a1 1 0 0 1 0-1 1 1 0 0 1 0 1z" style="fill:var(--color2, #4d5ae5)"/>
    </symbol>
    <symbol id="icon-astronaut1" viewBox="0 0 32 32">
      <path fill="#4d5ae5" d="M32 5V4h-2l-1-2h-1l-1 2h-2a1 1 0 0 0 0 1l1 1v3h1l1-1 2 1a1 1 0 0 0 1-1l-1-2 2-1zm-2 1h-1l1 1h-1a1 1 0 0 0-1 0h-1V6l-1-1h2V4l1 1h1v1zm-4 15h-1v1h1v-1zm0 2h-1v1h1v-1zm1-1h-1v1h1v-1zm-2 0h-1v1h1v-1zm-3 4h-1v1h1v-1zm0 3h-1v1h1v-1zm1-2h-1v2h1v-2zm-2 0h-1v2h1v-2zm-5-3h-1v1h1v-1zm0 2h-1v1h1v-1zm1-1h-1v1h1v-1zm-2 0h-1v1h1v-1zM6 6H5v1h1V6zm0 2H5v1h1V8zm1-1H6v1h1V7zM5 7H4v1h1V7z" style="fill:var(--color2, #4d5ae5)"/>
      <path fill="#2e2f42" d="m32 16-2-1-2 1-1 1-3 1h-1c3-1 5-4 5-7 0-5-4-9-9-9s-9 4-9 9l1 4H8l-4 2-3 1-1 2 2 1a3 3 0 0 0 1 0l2-1 3-1h2l-7 6-2 2-1 1 1 2h3l2-2 2-1 1 1-2 2-2 1v3l2 1 1-1 5-4 1-1 7-7 4 1 5-3 1-1 1-3zM3 20H1l1-1 1-1 1 2H3zm4-2-2 1v-1l2-2v2zm19-8v3l-6-2-1-1 2-6c3 1 5 3 5 6zm-15 0c0-3 4-6 8-6h1l-2 5-2 2 2 3 2-2 5 3-6 2c-4 0-8-3-8-7zm8 1-1 1-1-1 1-1 1 1zM3 29H2v-1l1-1 1 1-1 1zm4 4H6v-1l1-1 1 1-1 1zm5-4-3 2-1-1 3-2v-1l-2-2H8l-3 2-1-1 3-3 6 5-1 1zm8-8-6 6-6-5 4-3v-1H9v-2h4a9 9 0 0 0 8 2l3 2v1h-4zm6 0-1-2 2-1 1 2-2 1zm4-3-1 1-1-2h1l1-1v2z" style="fill:var(--color1, #2e2f42)"/>
      <path fill="#2e2f42" d="m14 19-3-3-2 3 2 2 3-2zm-3 1-1-1 1-1 1 1-1 1zm6-15v1l2 2h1c0-2-2-3-3-3zm3 4h-1v1h1V9z" style="fill:var(--color1, #2e2f42)"/>
    </symbol>
    <symbol id="icon-clock1" viewBox="0 0 32 32">
      <path fill="#2e2f42" d="M33 15C32 7 25 0 16 0S0 7 1 15a15 15 0 0 0 11 15v-1l5-12 2-2-2-2-1 1-6-6H9v1l6 5v3l-4 11C4 26 0 18 3 10S14-1 22 2c7 3 11 11 8 18-1 4-4 7-8 8v-2h-1l-4 3v1l5 2h1v-3c6-2 10-8 10-14zm-16 0v1l-1-1h1zm2 15 2-2 1 2h-3z" style="fill:var(--color1, #2e2f42)"/>
      <path fill="#4d5ae5" d="M15 3v1a1 1 0 1 0 2 0V3a1 1 0 0 0-2 0zM4 15a1 1 0 0 0 0 1h1a1 1 0 1 0 0-1H4zm24 1a1 1 0 1 0 0-1h-1a1 1 0 0 0 0 1h1z" style="fill:var(--color2, #4d5ae5)"/>
    </symbol>
    <symbol id="icon-diagram1" viewBox="0 0 32 32">
      <path fill="#4d5ae5" d="M15 15h1v5h-1v-5zm4 2h1v3h-1v-3zm-8 2h1v1h-1v-1zm-4-1h2v2H7v-2z" style="fill:var(--color2, #4d5ae5)"/>
      <path fill="#2e2f42" d="M2 36h25c1 0 2-1 2-3v-2c0-2-1-2-2-2V11l3-4h2V4h-3v2l-2 3V8l-2-2H4L2 8v21c-1 0-2 0-2 2v2c0 2 1 2 2 2zM30 5l1 1h-1V5zM3 8l1-1h21l1 1v3l-1 1V9l-1-1H5L4 9v17l1 1h19l1-1V14l1-1v16H3V8zm5 9-2 1c-1 1 1 2 1 3l2-1 2 2 1-1 4-5 3 3h1l3-4v11H5V10h18v3l-3 5-4-4h-1l-4 6-1-1-2-2zm1 2-1 1-1-1 1-1 1 1zm3 11h5v1h-5v-1zM1 31l1-1h9v1l1 2h5l1-2v-1h9l1 1v2l-1 1H2l-1-1v-2z" style="fill:var(--color1, #2e2f42)"/>
    </symbol>
  </defs>
</svg>